<svg xmlns="http://www.w3.org/2000/svg" width="100" height="100" fill="none"><path fill="#fff" d="m4.94 24.548 45.421-2.955c5.58-.421 7.013-.137 10.521 2.11l14.5 8.996c2.39 1.548 3.187 1.97 3.187 3.654v49.344c0 3.093-1.275 4.922-5.738 5.201l-52.747 2.814c-3.349.14-4.944-.282-6.698-2.25L2.71 79.231C.794 76.98 0 75.295 0 73.325v-43.86c0-2.53 1.275-4.638 4.94-4.918Z" style="fill:#fff;stroke-width:.770419"/><path fill="#fff" d="m30.056 4.137 43.151 2.21c5.326.242 6.526.497 8.796 1.88l9.506 5.576c1.54.951 2.094 1.222 1.37 2.047L71.691 40.027c-1.328 1.516-3.29 2.31-7.524 2.087l-49.845-2.87c-3.148-.2-4.438-.535-5.21-1.641L4.518 30.75c-.799-1.257-.807-2.146.038-3.111L23.39 6.149c1.086-1.24 3.167-2.17 6.666-2.012z" style="fill:#fff;stroke-width:.537292"/><path fill="#000" fill-rule="evenodd" d="m34.364.227 55.333 4.087c4.464.386 6.017 3.303 6.017 6.799v60.66c0 2.723-.967 5.053-3.3 8.167L79.407 96.853c-2.137 2.723-4.08 3.307-8.16 3.113L6.99 96.076C1.557 95.689 0 93.159 0 88.883V20.64c0-2.21.873-2.847 3.443-4.733L21.547 3.143C25.82.036 27.567-.357 34.364.226zm35.43 19.296c5.247.353 6.437.433 9.417-1.99l7.576-6.026c.77-.78.383-1.753-1.557-1.947L32.037 5.673c-4.467-.39-6.793 1.167-8.54 2.527l-9.123 6.61c-.39.197-1.36 1.36-.193 1.36l54.933 3.307.68.047zM75.911 88.3V30.367c0-2.53-.777-3.697-3.103-3.893L9.714 22.78c-2.14-.193-3.107 1.167-3.107 3.693V84.02c0 2.53.39 4.67 3.883 4.863l60.377 3.5c3.493.193 5.043-.97 5.043-4.083zm-59.6-54.827c-.387 1.75 0 3.5 1.75 3.7l2.91.577v42.773c2.527 1.36 4.853 2.137 6.797 2.137 3.107 0 3.883-.973 6.21-3.887L60.525 40.86l4.709-.193c.39-1.75-.58-4.277-3.3-4.473l-14.367-.967-19.8 30.327v-26.83l5.047-.58c.39-2.143-1.163-3.7-3.103-3.89l-13.4-.78z" clip-rule="evenodd"/></svg>